<?xml version="1.0" encoding="UTF-8"?><svg id="_圖層_2" xmlns="http://www.w3.org/2000/svg" xmlns:xlink="http://www.w3.org/1999/xlink" viewBox="0 0 153.84 193.68"><defs><filter id="drop-shadow-1" filterUnits="userSpaceOnUse"><feOffset dx="0" dy="0"/><feGaussianBlur result="blur" stdDeviation="6.67"/><feFlood flood-color="#040000" flood-opacity=".1"/><feComposite in2="blur" operator="in"/><feComposite in="SourceGraphic"/></filter></defs><g id="_圖層_2-2"><path d="m130.4,80.27l-.53-.17.53.16.28-.93c4.87-15.58,3.74-27.72-3.36-36.07-1.9-2.23-4.27-4.19-7.06-5.81h0s-.48-.28-.48-.28c-2.07-1.17-4.02-2.04-5.95-2.65-.33-.1-.68-.18-1.01-.26l-.95-.22c-.36-.08-.73-.16-1.06-.22l-.45-.1c-.43-.09-.85-.18-1.21-.23-1.09-.21-2.24-.48-3.28-.98-.41-.2-.83-.45-1.33-.82l-.35-.27c-.6-.47-1.15-.99-1.83-1.62-.78-.73-1.66-1.56-2.7-2.31-12.12-8.73-28.34-8.04-39.82-5.92-15.85,2.93-28.59,11.28-34.96,22.91-7.78,14.2-4.41,29.55-.14,40.04-2.25,2.38-3.54,5.53-3.54,8.7,0,6.76,5.5,12.49,12.26,12.78.41.02.83.02,1.24,0,2.37,7.96,6,14.11,11.08,18.79,2.11,1.95,4.53,3.66,7.19,5.1-6.28,10.93-9.87,26.04-9.87,41.57v2.11h66.01s1.56-.22,1.56-.22l.03-1.89c0-15.61-3.63-30.78-9.97-41.73,5.1-2.77,9.28-6.48,12.44-11.04,2.47-3.57,4.46-7.84,5.92-12.71,6.45-.47,11.53-5.9,11.89-12.84-.14-2.6-.99-5.08-2.47-7.21.81-2.21,1.44-4.28,1.86-5.66" style="fill:#fff; filter:url(#drop-shadow-1);"/><path d="m109.07,171.46c0-31.49-14.39-57.02-32.14-57.02s-32.14,25.53-32.14,57.02c0,.15,0,.31,0,.45h64.27c0-.15,0-.3,0-.45" style="fill:#014a8c;"/><path d="m85.61,128.47c0,4.79-3.89,8.68-8.68,8.68s-8.68-3.89-8.68-8.68,3.89-8.68,8.68-8.68,8.68,3.89,8.68,8.68" style="fill:#fbe8c3;"/><path d="m74.59,22.04c-.5.03-1,.05-1.51.08l56.9,43.22c.16-1.17.27-2.33.35-3.48l-52.24-39.68c-1.16-.07-2.33-.12-3.5-.14" style="fill:#efb81a;"/><path d="m25.69,53.44l20.96,15.93c.23-.08.46-.17.7-.25.98-.29,1.98-.51,2.98-.7l-23.84-18.1c-.32,1.03-.59,2.07-.81,3.13" style="fill:#efb81a;"/><path d="m31.28,85.36c.38.76.8,2.6,1.56,4.12l3.01,2.29c.36-.04.74-.14,1.16-.34.57-.28.93-.88,1.16-1.64l-7.53-5.72c.21.43.43.86.64,1.29" style="fill:#efb81a;"/><path d="m31.97,39.85l36.01,27.35c1.18-.14,2.37-.28,3.54-.48.2-.04.39-.08.6-.12l-38.25-29.06c-.66.74-1.3,1.51-1.9,2.3" style="fill:#efb81a;"/><path d="m68.28,22.41c-.85.06-1.68.18-2.52.27l63.23,48.03c.25-1.08.46-2.17.65-3.25l-59.47-45.17c-.63.04-1.26.07-1.9.12" style="fill:#efb81a;"/><path d="m41.44,31.06c-.88.58-1.73,1.18-2.54,1.81l41.66,31.65c1.14-.36,2.27-.76,3.38-1.18L41.44,31.06Z" style="fill:#efb81a;"/><path d="m95.48,26.89l5.9,4.48c-1.68-1.74-3.66-3.23-5.9-4.48" style="fill:#efb81a;"/><path d="m35.19,36.18l39.41,29.94c1.26-.27,2.5-.58,3.72-.92l-40.92-31.08c-.77.66-1.51,1.35-2.21,2.06" style="fill:#efb81a;"/><path d="m81.68,22.53l48.71,36.99c0-1.32-.07-2.63-.25-3.93l-41.58-31.59c-2.24-.68-4.53-1.17-6.88-1.47" style="fill:#efb81a;"/><path d="m89.05,61.1l-28.32-21.51-14.72-11.17c-.98.5-1.93,1.03-2.85,1.58l42.8,32.51c1.05-.44,2.08-.91,3.09-1.41" style="fill:#efb81a;"/><path d="m29.98,42.74c-.24.39-.46.79-.69,1.19l31.29,23.76c.66-.02,1.31-.03,1.97-.06.89-.03,1.76-.12,2.64-.19l-34.3-26.05c-.3.45-.63.88-.91,1.34" style="fill:#efb81a;"/><path d="m116.94,73.79l9,6.84c.37-.97.73-1.95,1.07-2.93l-11.77-8.94c.83,1.62,1.42,3.3,1.7,5.03" style="fill:#efb81a;"/><path d="m25.12,65.25l13.83,10.51c.39-.88.9-1.74,1.59-2.54l-15.68-11.91c.01,1.31.11,2.63.25,3.94" style="fill:#efb81a;"/><path d="m27.15,48.44l25.8,19.59c.74-.08,1.48-.14,2.23-.17.79-.03,1.58-.05,2.38-.08l-29.17-22.15c-.46.93-.88,1.86-1.24,2.8" style="fill:#efb81a;"/><path d="m24.95,58.48c-.01.17,0,.34-.02.51l16.99,12.91c.81-.67,1.71-1.24,2.68-1.71l-19.31-14.66c-.15.98-.28,1.96-.35,2.95" style="fill:#efb81a;"/><path d="m59.14,23.77l42.08,31.97c.59.31,1.19.63,1.74.98,1.68,1.06,3.35,2.15,4.87,3.35,1.45,1.15,2.76,2.37,3.93,3.68l15.87,12.06c.32-1.02.61-2.05.88-3.08L63.1,23.03c-1.33.21-2.65.45-3.96.74" style="fill:#efb81a;"/><path d="m105.89,34.8l23.7,18c-.25-1.02-.56-2.03-.95-3.03-.29-.75-.63-1.49-1-2.2l-15.51-11.78c-1.98-.53-4.07-.85-6.24-1" style="fill:#efb81a;"/><path d="m96.23,56.91c.58-.41,1.15-.84,1.74-1.27l-41.19-31.28c-1.19.31-2.36.67-3.53,1.06l42.17,32.03c.27-.18.55-.35.81-.53" style="fill:#efb81a;"/><path d="m29.01,80.45l9.49,7.21c.06-1.23-.02-2.58-.13-3.84l-11.15-8.47c.51,1.73,1.1,3.43,1.79,5.1" style="fill:#efb81a;"/><path d="m25.6,68.52c.23,1.28.51,2.56.82,3.84l11.72,8.91c-.04-.48-.07-.9-.06-1.21.01-.81.1-1.6.27-2.38l-12.84-9.75c.04.2.06.4.1.6" style="fill:#efb81a;"/><path d="m93.74,58.54L51.11,26.17c-1.09.41-2.17.85-3.2,1.32l43.01,32.68c.96-.51,1.9-1.05,2.81-1.62" style="fill:#efb81a;"/><path d="m103.82,34.39c.18.26.38.32.72.33.46.02.9.06,1.35.09l-4.52-3.43c.9.93,1.72,1.94,2.45,3.02" style="fill:#efb81a;"/><path d="m42.82,93.22c0,4.85-3.93,8.78-8.78,8.78s-8.78-3.93-8.78-8.78,3.94-8.78,8.78-8.78,8.78,3.93,8.78,8.78" style="fill:#f9ddbd;"/><path d="m40.46,93.22c-.44,8.22-12.84,8.3-12.84,0s12.4-8.23,12.84,0c.16,3.03,4.89,3.05,4.73,0-.33-6.04-4.84-11.15-11.15-11.15s-11.15,5.09-11.15,11.15,4.8,10.87,10.67,11.12c6.49.27,11.29-4.89,11.62-11.12.16-3.04-4.56-3.03-4.73,0" style="fill:#014a8c;"/><path d="m127,93.22c0,4.85-3.93,8.78-8.78,8.78s-8.78-3.93-8.78-8.78,3.93-8.78,8.78-8.78,8.78,3.93,8.78,8.78" style="fill:#f9ddbd;"/><path d="m124.64,93.22c-.44,8.22-12.84,8.3-12.84,0s12.4-8.23,12.84,0c.16,3.03,4.89,3.05,4.73,0-.33-6.04-4.84-11.15-11.15-11.15s-11.15,5.09-11.15,11.15,4.8,10.87,10.67,11.12c6.49.27,11.29-4.89,11.63-11.12.16-3.04-4.57-3.03-4.73,0" style="fill:#014a8c;"/><path d="m116.48,79.76c0-.8-.05-1.6-.1-2.4-.19-2.72-1.15-5.27-2.62-7.71-1.66-2.76-3.94-5.19-6.66-7.34-1.52-1.2-3.19-2.29-4.87-3.35-1.19-.75-2.52-1.37-3.75-2.02-1.06.79-2.01,1.52-2.99,2.21-3.47,2.46-7.34,4.46-11.48,6.12-4.2,1.68-8.61,2.91-13.22,3.69-2.96.5-5.96.81-8.98.92-2.46.09-4.91.12-7.37.22-2.68.11-5.3.51-7.82,1.26-2.36.7-4.43,1.74-6.06,3.3-2.3,2.21-3.2,4.85-3.23,7.63-.03,2.3,1.57,10.07-1.06,11.38,0,0-.02,0-.02.01,2.4,21.48,13.23,37.56,40.65,37.56s38.33-16.2,40.67-37.8c-.9-1.02-1.48-3.05-1.59-4.49-.23-3.07.51-6.11.51-9.17" style="fill:#fbe8c3;"/><path d="m117.66,79.76c-.5-11.67-8.78-18.79-18.59-23.85-.35-.18-.85-.25-1.19,0-7.2,5.39-15.17,9.28-23.99,11.24-8.68,1.92-17.75.56-26.31,2.75-3.98,1.02-7.87,2.87-9.95,6.64-1.51,2.74.01,15.23-1.97,16.11-.33.15-.63.66-.59,1.02,1.36,10.69,4.53,21.54,12.72,29.07,9.56,8.78,23.62,10.69,36.08,9.28,10.76-1.23,20.68-5.82,26.97-14.87,3.25-4.67,5.3-10.07,6.57-15.59,1.78-7.72-.2-13.98.26-21.8.09-1.52-2.27-1.51-2.36,0-.52,8.96,1.37,17.76-1.63,26.39-3.35,9.61-9.82,17.38-19.46,21.07-20.06,7.68-45.78,1.39-53.68-19.92-1.06-2.85-4-9.75-3.67-12.62-.03.29,1.94-3.38,1.92-3.29.86-2.99-.67-6.15-.28-9.11,1.44-10.85,13.07-10.84,21.45-11.17,10.15-.4,20-2.31,29.16-6.86,4.57-2.27,7.59-6.29,12.51-4.27,7.65,3.14,13.33,11.88,13.67,19.78.06,1.52,2.43,1.52,2.36,0" style="fill:#014a8c;"/><path d="m42.35,102.01c-1.47,0-2.87.26-4.18.72,2.31,8.56,6.49,15.73,13.22,20.66,2.21-2.27,3.57-5.37,3.57-8.78,0-6.96-5.64-12.61-12.61-12.61" style="fill:#f0baba;"/><path d="m115.6,103.56c-1.8-.99-3.86-1.55-6.06-1.55-6.97,0-12.61,5.65-12.61,12.61,0,3.87,1.75,7.34,4.5,9.65,7.21-4.79,11.68-12.02,14.17-20.71" style="fill:#f0baba;"/><path d="m118.84,79.76c-.51-12.1-8.97-19.61-19.18-24.87-.7-.36-1.71-.51-2.39,0-7.12,5.34-14.97,9.19-23.71,11.12-8.68,1.92-17.75.55-26.31,2.75-4.31,1.11-8.54,3.22-10.72,7.33-1.14,2.14-.68,15.18-1.49,15.54-.67.3-1.26,1.31-1.17,2.04,1.4,11.01,4.64,22.14,13.06,29.9,9.78,9.01,24.14,11.05,36.91,9.63,11.18-1.25,21.48-6.04,28-15.45,3.29-4.76,5.4-10.26,6.69-15.87,1.8-7.84-.16-14.2.3-22.11.18-3.04-4.55-3.03-4.73,0-.52,8.91,1.41,17.48-1.59,26.08-3.21,9.23-9.4,16.65-18.63,20.24-19.39,7.56-44.53,1.52-52.23-19.09-.63-1.67-1.14-3.38-1.58-5.1-.09-.34-2.61-6.67-2.64-6.18,0-.12,2.34-3.61,2.48-4.15.8-3.08-.69-6.24-.25-9.27,1.43-9.98,12.59-9.68,20.27-9.99,10.37-.41,20.4-2.38,29.76-7.02,4.43-2.19,6.83-5.61,11.32-4.28,7.29,2.16,12.79,11.96,13.08,18.76.13,3.03,4.86,3.05,4.73,0" style="fill:#014a8c;"/><path d="m28.25,88.22c1.51,4.03,5.54,12.2,10.56,6.19,2.23-2.66.96-6.91,1.02-9.97.26-12.67,12.56-11.7,21.96-12.2,7.25-.38,14.4-1.58,21.23-4.11,4.93-1.82,12.53-8.55,17.07-7.66,8.45,1.66,14.08,13.51,13.92,20.82-.09,3.94-1.73,10.48,1.86,13.65,7.04,6.22,11.95-12.05,13.22-16.09,3.49-11.15,5.12-24.91-3.04-34.5-3.31-3.9-7.85-6.7-12.71-8.23-2.73-.86-5.6-.86-8.18-2.09-2.57-1.23-4.13-3.48-6.46-5.16-10.89-7.85-25.87-7.98-38.55-5.63-13.63,2.52-26.97,9.58-33.8,22.07-7.59,13.85-4.57,29.94,2.13,43.49,1.35,2.72,5.43.33,4.08-2.39-5.27-10.66-8.07-22.88-4-34.38,4-11.29,13.74-18.4,24.75-22.17,9.94-3.4,22.16-4.55,32.4-1.8,2.7.73,5.52,1.76,7.94,3.16,3.46,2,4.56,4.85,7.55,6.84.9.6,1.57.87,2.58,1.26,6.15,2.39,11.53,1.25,17,6.31,4.63,4.28,6.45,10.56,6.47,16.69.02,5.65-1.39,11.53-3.22,16.86-.88,2.56-1.84,6.76-3.62,8.71-2.66,2.91-2.09,1.68-2.06-2.01.06-7.54.81-12.98-3.93-19.43-3.75-5.12-9.22-8.68-14.78-11.55-.7-.36-1.71-.51-2.38,0-7.61,5.7-16.05,9.64-25.42,11.45-8.83,1.71-18.47,0-27,3.15-4.41,1.62-8.2,4.74-9.47,9.45-.58,2.15-.27,4.22-.19,6.38.16,4.28-.33,7.15-2.38,1.65-1.06-2.83-5.63-1.6-4.56,1.25" style="fill:#014a8c;"/><path d="m53.84,78.37c6.07-.08,11.95,1.07,17.75,2.75,1.29.37,2.58.74,3.89,1.02,2.18.48,4.31.15,6.41-.49,4.85-1.47,9.77-2.68,14.84-3.14,5.33-.49,10.55.16,15.7,1.52,1.59.43,3.18.85,4.78,1.26,2.81.72,3.67,2.8,2.19,5.29-.06.11-.11.23-.19.31-2.17,2.26-2.88,5.13-3.6,8.05-.77,3.13-2.05,6.07-4.24,8.53-3.1,3.48-7.05,4.76-11.61,4.46-3.1-.2-6.11-.76-8.97-2.03-5.26-2.33-8.12-6.55-9.44-11.98-.28-1.16-.5-2.33-.76-3.48-.41-1.84-2.19-3.12-3.68-2.58-1.21.44-1.88,1.4-2.2,2.63-.51,2.01-.88,4.07-1.56,6.01-2.14,6.1-6.7,9.43-12.85,10.77-3.12.68-6.28,1.07-9.45.33-4.57-1.07-7.69-3.97-9.49-8.18-1.09-2.56-1.71-5.32-2.58-7.98-.26-.79-.62-1.57-1.06-2.28-.65-1.07-1.5-2.02-2.09-3.11-1.06-1.96-.32-3.93,1.82-4.53,5.38-1.51,10.74-3.12,16.41-3.15m-12.98,5.35c.41,2.71.71,5.17,1.17,7.59.59,3.1,1.53,6.09,3.22,8.81,1.53,2.46,3.65,4.09,6.57,4.52,2.85.41,5.66.09,8.45-.55,5.45-1.26,8.89-4.63,10.34-10.01.46-1.7.94-3.43,1.14-5.18.14-1.3-.12-2.65-.27-3.97-.04-.27-.4-.64-.68-.72-6.9-2.02-13.88-3.51-21.11-2.38-2.94.45-5.82,1.24-8.83,1.9m73.44.13c-4.17-1.27-8.35-2.27-12.68-2.39-5.9-.16-11.58,1.12-17.19,2.76-.28.08-.61.47-.65.75-.17,1.11-.42,2.25-.29,3.34.2,1.78.63,3.54,1.06,5.28,1.04,4.25,3.28,7.61,7.4,9.44,3.1,1.38,6.38,1.8,9.75,1.76,2.16-.03,4.17-.55,5.9-1.91,2.25-1.77,3.43-4.25,4.37-6.86,1.42-3.9,1.92-7.99,2.34-12.18" style="fill:#014a8c;"/><path d="m53.84,78.37c6.07-.08,11.95,1.07,17.75,2.75,1.29.37,2.58.74,3.89,1.02,2.18.48,4.31.15,6.41-.49,4.85-1.47,9.77-2.68,14.84-3.14,5.33-.49,10.55.16,15.7,1.52,1.59.43,3.18.85,4.78,1.26,2.81.72,3.67,2.8,2.19,5.29-.06.11-.11.23-.19.31-2.17,2.26-2.88,5.13-3.6,8.05-.77,3.13-2.05,6.07-4.24,8.53-3.1,3.48-7.05,4.76-11.61,4.46-3.1-.2-6.11-.76-8.97-2.03-5.26-2.33-8.12-6.55-9.44-11.98-.28-1.16-.5-2.33-.76-3.48-.41-1.84-2.19-3.12-3.68-2.58-1.21.44-1.88,1.4-2.2,2.63-.51,2.01-.88,4.07-1.56,6.01-2.14,6.1-6.7,9.43-12.85,10.77-3.12.68-6.28,1.07-9.45.33-4.57-1.07-7.69-3.97-9.49-8.18-1.09-2.56-1.71-5.32-2.58-7.98-.26-.79-.62-1.57-1.06-2.28-.65-1.07-1.5-2.02-2.09-3.11-1.06-1.96-.32-3.93,1.82-4.53,5.38-1.51,10.74-3.12,16.41-3.15Zm-12.98,5.35c.41,2.71.71,5.17,1.17,7.59.59,3.1,1.53,6.09,3.22,8.81,1.53,2.46,3.65,4.09,6.57,4.52,2.85.41,5.66.09,8.45-.55,5.45-1.26,8.89-4.63,10.34-10.01.46-1.7.94-3.43,1.14-5.18.14-1.3-.12-2.65-.27-3.97-.04-.27-.4-.64-.68-.72-6.9-2.02-13.88-3.51-21.11-2.38-2.94.45-5.82,1.24-8.83,1.9Zm73.44.13c-4.17-1.27-8.35-2.27-12.68-2.39-5.9-.16-11.58,1.12-17.19,2.76-.28.08-.61.47-.65.75-.17,1.11-.42,2.25-.29,3.34.2,1.78.63,3.54,1.06,5.28,1.04,4.25,3.28,7.61,7.4,9.44,3.1,1.38,6.38,1.8,9.75,1.76,2.16-.03,4.17-.55,5.9-1.91,2.25-1.77,3.43-4.25,4.37-6.86,1.42-3.9,1.92-7.99,2.34-12.18Z" style="fill:none; stroke:#014a8c; stroke-miterlimit:10; stroke-width:2.22px;"/><path d="m114.31,83.91c-4.17-1.27-8.35-2.27-12.68-2.39-5.9-.16-11.58,1.12-17.19,2.76-.28.08-.61.47-.65.75-.17,1.11-.42,2.25-.29,3.34.2,1.78.63,3.54,1.06,5.28,1.04,4.25,3.28,7.61,7.4,9.45,3.1,1.38,6.38,1.8,9.75,1.76,2.16-.03,4.17-.55,5.9-1.91,2.25-1.77,3.43-4.25,4.37-6.86,1.42-3.91,1.92-7.99,2.34-12.18" style="fill:#fff5e9;"/><path d="m43.18,96.09c.96,2.61,2.15,5.08,4.42,6.86,1.74,1.36,3.77,1.88,5.96,1.91,3.4.04,6.71-.38,9.84-1.76,4.16-1.84,6.42-5.2,7.47-9.45.43-1.74.86-3.5,1.07-5.28.13-1.09-.12-2.23-.29-3.34-.05-.28-.39-.67-.66-.75-5.67-1.64-11.41-2.92-17.37-2.76-4.38.12-8.55.93-12.76,2.21.43,4.19.89,8.46,2.32,12.37" style="fill:#fff5e9;"/><path d="m62.36,90.89c0,1.62-1.32,2.94-2.94,2.94s-2.94-1.32-2.94-2.94,1.31-2.94,2.94-2.94,2.94,1.32,2.94,2.94" style="fill:#221714;"/><path d="m98.88,90.89c0,1.62-1.32,2.94-2.94,2.94s-2.94-1.32-2.94-2.94,1.31-2.94,2.94-2.94,2.94,1.32,2.94,2.94" style="fill:#221714;"/><path d="m74.79,102.81s-.4,2.93,2.93,2.93c0,0,2.75.06,2.75-2.93" style="fill:none; stroke:#014a8c; stroke-miterlimit:10; stroke-width:1.66px;"/></g></svg>